# xmcd
#
# Track frame offsets:
#	150
#	13115
#	28710
#	46733
#	59413
#	70433
#	85421
#	103851
#
# Disc length: 1551 seconds
#
# Revision: 0
# Processed by: cddbd v1.5.2PL0 Copyright (c) Steve Scherf et al.
# Submitted via: dBpowerAMP V4.0
#
DISCID=6a060d08
DTITLE=Larry Gatlin and the Gatlin Brothers - Certified Classic Country
DYEAR=1900
DGENRE=Country
TTITLE0=All The Gold In California
TTITLE1=Bitter They Are The Harder They Fall
TTITLE2=Love Is Just A Game
TTITLE3=Broken Lady
TTITLE4=I Don't Want To Cry
TTITLE5=I Just Wished You Were Someone I Loved
TTITLE6=I've Done Enough Dyin' Today
TTITLE7=Statues Without Hearts
EXTD=
EXTT0=
EXTT1=
EXTT2=
EXTT3=
EXTT4=
EXTT5=
EXTT6=
EXTT7=
PLAYORDER=
